<svg id="Layer_2" data-name="Layer 2" xmlns="http://www.w3.org/2000/svg" viewBox="0 0 962.95 144.92">
  <defs>
    <style>
      .cls-1 {
        fill: red;
      }

      .cls-2 {
        fill: #ff5725;
      }

      .cls-3 {
        fill: #ffb225;
      }

      .cls-4 {
        fill: #e7ed17;
      }
    </style>
  </defs>
  <g>
    <path class="cls-1" d="M193.83,191.39l82-142.09h26.76l-82,142.09Zm43.61-57.13,14.88-25.78h49.42q6.24,0,12.65-4.59a39,39,0,0,0,10.85-12.11q4.33-7.52,3.23-12.11T321,75.08H271.6L286.48,49.3H338q11.82,0,17.61,5.27t5.15,14.85q-.63,9.57-8,22.36a93.21,93.21,0,0,1-17.84,22.36A83.23,83.23,0,0,1,312.65,129,57.73,57.73,0,0,1,289,134.26Zm31.39,57.13,1-61.52,31.21-4.5.18,66Z" transform="translate(-46.24 -47.93)"/>
    <path class="cls-1" d="M304.2,191.39l81.95-142H412.9L331,191.39Zm9.67,0,14.87-25.78h85.45l-14.88,25.78Zm33.25-57.62L362,108h74.7l-14.87,25.78Zm33.81-58.59L395.81,49.4h85.45L466.38,75.18Z" transform="translate(-46.24 -47.93)"/>
    <path class="cls-1" d="M403.78,191.29,485.68,49.4h32.71l-9.95,108.79-3.81,2.53L568.88,49.4h25.59l-81.9,141.89H479.66l9.19-107.13,3.81-2.54L429.37,191.29Z" transform="translate(-46.24 -47.93)"/>
    <path class="cls-1" d="M523.77,191.39l82-142h26.75l-81.94,142Zm13.47,0,14.88-25.78h34.09a46.78,46.78,0,0,0,24.1-6.4,48.37,48.37,0,0,0,17.57-17.92L652,99.49q6.71-11.61,3.14-18t-16.75-6.34H604.31L619.19,49.4h33.5q26.76,0,33.66,13.33t-7.07,37.55l-23.22,40.23a107.11,107.11,0,0,1-21.61,26.61,96.79,96.79,0,0,1-29,17.87,93.48,93.48,0,0,1-34.8,6.4Z" transform="translate(-46.24 -47.93)"/>
    <path class="cls-1" d="M633.06,191.39l82-142h26.76l-81.95,142Zm9.67,0,14.88-25.78h85.45l-14.88,25.78ZM676,133.77,690.86,108h74.71l-14.88,25.78ZM709.8,75.18,724.68,49.4h85.45L795.25,75.18Z" transform="translate(-46.24 -47.93)"/>
    <path class="cls-1" d="M732.6,191.39l82-142.09h26.76l-82,142.09Zm43.61-57.13,14.88-25.78H840.5q6.25,0,12.66-4.59A39.1,39.1,0,0,0,864,91.78q4.34-7.52,3.23-12.11t-7.46-4.59H810.37L825.25,49.3h51.56q11.81,0,17.61,5.27t5.15,14.85q-.65,9.57-8,22.36a93.21,93.21,0,0,1-17.84,22.36A83.23,83.23,0,0,1,851.42,129a57.73,57.73,0,0,1-23.65,5.27Zm31.39,57.13,1-61.52,31.21-4.5.18,66Z" transform="translate(-46.24 -47.93)"/>
    <path class="cls-1" d="M882.84,192.85a79.81,79.81,0,0,1-18.69-2,48.18,48.18,0,0,1-14.74-6,32.06,32.06,0,0,1-9.84-9.53l25.14-22.07a27.66,27.66,0,0,0,12.94,10.41,50.81,50.81,0,0,0,20,3.66q13.08,0,22.88-4.45T935,150.28l0-.1q3.56-6.15,1.83-9.43c-1.15-2.18-3.4-3.79-6.73-4.83a88.72,88.72,0,0,0-11.32-2.64q-7.57-1.26-15-3.17a29.06,29.06,0,0,1-12.13-6.06q-4.73-4.14-4.63-11.86t7.55-20.61l.06-.09a84.58,84.58,0,0,1,32.24-32.18q20.24-11.39,45.24-11.38a56.88,56.88,0,0,1,21.21,3.86,40,40,0,0,1,15.83,11L984.78,85.43a32.11,32.11,0,0,0-12-8.84,38.48,38.48,0,0,0-15.36-3.07q-12.3,0-21.38,4T922.7,89l-.06.09q-3.95,6.84-2,10.36t7.43,5.22q5.46,1.71,12,3.17a128.61,128.61,0,0,1,14.08,3.86,27.83,27.83,0,0,1,11,6.59q4.26,4.31,3.92,11.82t-7.27,19.53l-.11.2a82.51,82.51,0,0,1-32.51,31.78Q908.64,192.85,882.84,192.85Z" transform="translate(-46.24 -47.93)"/>
  </g>
  <polygon class="cls-2" points="204.7 1.97 122.75 143.96 88.19 143.96 170.14 1.97 204.7 1.97"/>
  <polygon class="cls-3" points="160.51 1.97 78.56 143.96 44 143.96 125.95 1.97 160.51 1.97"/>
  <polygon class="cls-4" points="116.51 1.97 34.56 143.96 0 143.96 81.95 1.97 116.51 1.97"/>
</svg>
