<svg id="Layer_3" data-name="Layer 3" xmlns="http://www.w3.org/2000/svg" viewBox="0 0 988.56 131.94">
  <defs>
    <style>
      .cls-1 {
        fill: red;
      }

      .cls-2 {
        fill: #ff5725;
      }

      .cls-3 {
        fill: #ffb225;
      }

      .cls-4 {
        fill: #e7ed17;
      }
    </style>
  </defs>
  <g>
    <path class="cls-1" d="M231.2,193.61a72.48,72.48,0,0,1-17-1.87,43.86,43.86,0,0,1-13.43-5.47,29.13,29.13,0,0,1-8.95-8.67l22.89-20.09A25.06,25.06,0,0,0,226.48,167a46.23,46.23,0,0,0,18.17,3.33,49.9,49.9,0,0,0,20.82-4,28,28,0,0,0,13.18-11.43l.05-.09q3.23-5.59,1.66-8.57t-6.13-4.4a79,79,0,0,0-10.3-2.4q-6.9-1.15-13.63-2.89a26.46,26.46,0,0,1-11-5.52c-2.88-2.51-4.28-6.12-4.21-10.8s2.35-10.93,6.87-18.76l.05-.09A77,77,0,0,1,271.32,72q18.42-10.36,41.18-10.36a51.83,51.83,0,0,1,19.32,3.51,36.44,36.44,0,0,1,14.4,10L324,95.81a29.2,29.2,0,0,0-11-8,35,35,0,0,0-14-2.81,47.51,47.51,0,0,0-19.46,3.69Q271.33,92.34,267.48,99l-.05.09q-3.58,6.23-1.79,9.42c1.2,2.14,3.45,3.73,6.77,4.76s7,2,10.95,2.89a115.81,115.81,0,0,1,12.82,3.51,25.39,25.39,0,0,1,10.05,6q3.88,3.91,3.57,10.76t-6.61,17.78l-.1.18a75.15,75.15,0,0,1-29.6,28.94Q254.68,193.6,231.2,193.61Z" transform="translate(-42.68 -61.67)"/>
    <path class="cls-1" d="M285.47,192.27,360.07,63h24.36l-74.6,129.26Zm28.66-18.84,15.15-31.65L426.58,63h30.67Zm45,18.84.25-65.43L388,113.59l0,78.68Z" transform="translate(-42.68 -61.67)"/>
    <path class="cls-1" d="M387.86,192.27,462.47,63h24.36L412.22,192.27Zm8.81,0,13.54-23.47H488l-13.54,23.47Zm30.27-52.45,13.54-23.47h68L495,139.82Zm30.78-53.34L471.27,63h77.79L535.52,86.48Z" transform="translate(-42.68 -61.67)"/>
    <path class="cls-1" d="M514,192.27,582.52,73.58h24.36l-68.5,118.69ZM539.88,86.48,553.42,63H648.2L634.65,86.48Z" transform="translate(-42.68 -61.67)"/>
    <path class="cls-1" d="M624,193.61q-14.85,0-22-5.65t-6.47-16.45q.72-10.8,9.55-26.09L625.46,110a109.24,109.24,0,0,1,20.6-26.14,86.81,86.81,0,0,1,25.45-16.45,74,74,0,0,1,28.58-5.69q12.27,0,18.8,5.25t7.05,15.2q.52,10-5.29,24.18H695.4q2.33-6.48,1.94-11a9.7,9.7,0,0,0-3.23-6.89Q691.28,86,686,86a34.23,34.23,0,0,0-19.49,6.27A52.5,52.5,0,0,0,650.71,110l-20.47,35.47q-6.57,11.39-4.51,17.6T638,169.25q8,0,16.57-5.29a63.4,63.4,0,0,0,16.2-15H696a142.74,142.74,0,0,1-22.69,24.13,97.21,97.21,0,0,1-24.58,15.25A63.87,63.87,0,0,1,624,193.61Z" transform="translate(-42.68 -61.67)"/>
    <path class="cls-1" d="M675.64,192.27,750.25,63h24.36L700,192.27Zm41.51-52.36,13.55-23.47H806l-13.54,23.47Zm29.26,52.36L821,63h24.37L770.77,192.27Z" transform="translate(-42.68 -61.67)"/>
    <path class="cls-1" d="M783.38,192.27,858,63h24.36l-74.6,129.26Zm8.8,0,13.55-23.47h77.79L870,192.27Zm30.28-52.45L836,116.35h68l-13.54,23.47Zm30.78-53.34L866.79,63h77.79L931,86.48Z" transform="translate(-42.68 -61.67)"/>
    <path class="cls-1" d="M916.22,193.61a72.36,72.36,0,0,1-17-1.87,43.86,43.86,0,0,1-13.43-5.47,29.17,29.17,0,0,1-9-8.67l22.89-20.09A25.16,25.16,0,0,0,911.49,167a46.27,46.27,0,0,0,18.17,3.33,50,50,0,0,0,20.83-4,28,28,0,0,0,13.17-11.43l.05-.09q3.24-5.59,1.67-8.57t-6.13-4.4a79.15,79.15,0,0,0-10.31-2.4q-6.88-1.15-13.62-2.89A26.5,26.5,0,0,1,924.27,131c-2.87-2.51-4.27-6.12-4.21-10.8s2.36-10.93,6.87-18.76l.05-.09A77,77,0,0,1,956.34,72q18.42-10.36,41.18-10.36a51.78,51.78,0,0,1,19.31,3.51,36.48,36.48,0,0,1,14.41,10L1009,95.81a29.12,29.12,0,0,0-11-8,35,35,0,0,0-14-2.81,47.6,47.6,0,0,0-19.47,3.69Q956.35,92.34,952.5,99l0,.09q-3.6,6.23-1.8,9.42t6.77,4.76q5,1.56,11,2.89a116.41,116.41,0,0,1,12.82,3.51,25.53,25.53,0,0,1,10,6q3.87,3.91,3.57,10.76t-6.62,17.78l-.1.18a75.12,75.12,0,0,1-29.59,28.94Q939.69,193.6,916.22,193.61Z" transform="translate(-42.68 -61.67)"/>
  </g>
  <polygon class="cls-2" points="186.36 1.79 111.75 131.06 80.29 131.06 154.9 1.79 186.36 1.79"/>
  <polygon class="cls-3" points="146.13 1.79 71.52 131.06 40.06 131.06 114.66 1.79 146.13 1.79"/>
  <polygon class="cls-4" points="106.07 1.79 31.46 131.06 0 131.06 74.6 1.79 106.07 1.79"/>
</svg>
