{
	"asset":{
		"generator":"Khronos glTF Blender I/O v4.4.55",
		"version":"2.0"
	},
	"extensionsUsed":[
		"KHR_texture_transform"
	],
	"extensionsRequired":[
		"KHR_texture_transform"
	],
	"scene":0,
	"scenes":[
		{
			"name":"Scene",
			"nodes":[
				0,
				1,
				2,
				3,
				4,
				5,
				6,
				7
			]
		}
	],
	"nodes":[
		{
			"mesh":0,
			"name":"Body12"
		},
		{
			"mesh":1,
			"name":"Body39"
		},
		{
			"mesh":2,
			"name":"Body40"
		},
		{
			"mesh":3,
			"name":"Body41"
		},
		{
			"mesh":4,
			"name":"Body42"
		},
		{
			"mesh":5,
			"name":"Body43"
		},
		{
			"mesh":6,
			"name":"ring",
			"translation":[
				0,
				0.00011272319534327835,
				0
			]
		},
		{
			"mesh":7,
			"name":"table",
			"translation":[
				0,
				0.00022941571660339832,
				0
			]
		}
	],
	"materials":[
		{
			"doubleSided":true,
			"name":"Metal",
			"pbrMetallicRoughness":{
				"baseColorTexture":{
					"index":0
				},
				"metallicRoughnessTexture":{
					"index":1
				}
			}
		},
		{
			"doubleSided":true,
			"name":"Metal",
			"pbrMetallicRoughness":{
				"baseColorTexture":{
					"index":0,
					"texCoord":1
				},
				"metallicRoughnessTexture":{
					"index":1,
					"texCoord":1
				}
			}
		},
		{
			"doubleSided":true,
			"name":"Plastic Blue 16",
			"normalTexture":{
				"extensions":{
					"KHR_texture_transform":{
						"offset":[
							0,
							-975.0499877929688
						],
						"scale":[
							976.0499877929688,
							976.0499877929688
						]
					}
				},
				"index":2,
				"texCoord":1
			},
			"pbrMetallicRoughness":{
				"baseColorTexture":{
					"index":3,
					"texCoord":1
				},
				"metallicFactor":0.37272727489471436,
				"metallicRoughnessTexture":{
					"index":4,
					"texCoord":1
				}
			}
		}
	],
	"meshes":[
		{
			"name":"Body12",
			"primitives":[
				{
					"attributes":{
						"POSITION":0,
						"NORMAL":1,
						"TEXCOORD_0":2
					},
					"indices":3,
					"material":0
				}
			]
		},
		{
			"name":"Body39",
			"primitives":[
				{
					"attributes":{
						"POSITION":4,
						"NORMAL":5,
						"TEXCOORD_0":6
					},
					"indices":7,
					"material":0
				}
			]
		},
		{
			"name":"Body40",
			"primitives":[
				{
					"attributes":{
						"POSITION":8,
						"NORMAL":9,
						"TEXCOORD_0":10
					},
					"indices":11,
					"material":0
				}
			]
		},
		{
			"name":"Body41",
			"primitives":[
				{
					"attributes":{
						"POSITION":12,
						"NORMAL":13,
						"TEXCOORD_0":14
					},
					"indices":15,
					"material":0
				}
			]
		},
		{
			"name":"Body42",
			"primitives":[
				{
					"attributes":{
						"POSITION":16,
						"NORMAL":17,
						"TEXCOORD_0":18
					},
					"indices":19,
					"material":0
				}
			]
		},
		{
			"name":"Body43",
			"primitives":[
				{
					"attributes":{
						"POSITION":20,
						"NORMAL":21,
						"TEXCOORD_0":22,
						"TEXCOORD_1":23
					},
					"indices":24,
					"material":1
				}
			]
		},
		{
			"name":"ring",
			"primitives":[
				{
					"attributes":{
						"POSITION":25,
						"NORMAL":26,
						"TEXCOORD_0":27
					},
					"indices":28,
					"material":0
				}
			]
		},
		{
			"name":"table",
			"primitives":[
				{
					"attributes":{
						"POSITION":29,
						"NORMAL":30,
						"TEXCOORD_0":31,
						"TEXCOORD_1":32
					},
					"indices":33,
					"material":2
				}
			]
		}
	],
	"textures":[
		{
			"sampler":0,
			"source":0
		},
		{
			"sampler":0,
			"source":1
		},
		{
			"sampler":0,
			"source":2
		},
		{
			"sampler":0,
			"source":3
		},
		{
			"sampler":0,
			"source":4
		}
	],
	"images":[
		{
			"mimeType":"image/jpeg",
			"name":"DefaultMaterial_BaseColor",
			"uri":"DefaultMaterial_BaseColor.jpg"
		},
		{
			"mimeType":"image/png",
			"name":"roughnesstableMetal",
			"uri":"roughnesstableMetal.png"
		},
		{
			"mimeType":"image/jpeg",
			"name":"plastic-texture-normal-1",
			"uri":"plastic-texture-normal-1.jpg"
		},
		{
			"mimeType":"image/png",
			"name":"tableDiffuse",
			"uri":"tableDiffuse.png"
		},
		{
			"mimeType":"image/png",
			"name":"plastic-smudge-smoothness copy",
			"uri":"plastic-smudge-smoothness%20copy.png"
		}
	],
	"accessors":[
		{
			"bufferView":0,
			"componentType":5126,
			"count":1171,
			"max":[
				0.07125000655651093,
				0.8810405135154724,
				0.37000009417533875
			],
			"min":[
				-0.07125000655651093,
				4.0471553802490234e-05,
				0.13039058446884155
			],
			"type":"VEC3"
		},
		{
			"bufferView":1,
			"componentType":5126,
			"count":1171,
			"type":"VEC3"
		},
		{
			"bufferView":2,
			"componentType":5126,
			"count":1171,
			"type":"VEC2"
		},
		{
			"bufferView":3,
			"componentType":5123,
			"count":4674,
			"type":"SCALAR"
		},
		{
			"bufferView":4,
			"componentType":5126,
			"count":1152,
			"max":[
				0.3376922011375427,
				0.8810405135154724,
				0.2361028641462326
			],
			"min":[
				0.07898305356502533,
				4.044175148010254e-05,
				0.006412038579583168
			],
			"type":"VEC3"
		},
		{
			"bufferView":5,
			"componentType":5126,
			"count":1152,
			"type":"VEC3"
		},
		{
			"bufferView":6,
			"componentType":5126,
			"count":1152,
			"type":"VEC2"
		},
		{
			"bufferView":7,
			"componentType":5123,
			"count":4584,
			"type":"SCALAR"
		},
		{
			"bufferView":8,
			"componentType":5126,
			"count":1152,
			"max":[
				0.3376922011375427,
				0.8810404539108276,
				-0.006412038579583168
			],
			"min":[
				0.07898305356502533,
				4.0411949157714844e-05,
				-0.23610295355319977
			],
			"type":"VEC3"
		},
		{
			"bufferView":9,
			"componentType":5126,
			"count":1152,
			"type":"VEC3"
		},
		{
			"bufferView":10,
			"componentType":5126,
			"count":1152,
			"type":"VEC2"
		},
		{
			"bufferView":11,
			"componentType":5123,
			"count":4584,
			"type":"SCALAR"
		},
		{
			"bufferView":12,
			"componentType":5126,
			"count":1177,
			"max":[
				0.07125000655651093,
				0.8810404539108276,
				-0.13039058446884155
			],
			"min":[
				-0.07125000655651093,
				4.0411949157714844e-05,
				-0.3699999749660492
			],
			"type":"VEC3"
		},
		{
			"bufferView":13,
			"componentType":5126,
			"count":1177,
			"type":"VEC3"
		},
		{
			"bufferView":14,
			"componentType":5126,
			"count":1177,
			"type":"VEC2"
		},
		{
			"bufferView":15,
			"componentType":5123,
			"count":4716,
			"type":"SCALAR"
		},
		{
			"bufferView":16,
			"componentType":5126,
			"count":1152,
			"max":[
				-0.07898305356502533,
				0.8810404539108276,
				-0.006412038579583168
			],
			"min":[
				-0.3376922011375427,
				4.0411949157714844e-05,
				-0.23610295355319977
			],
			"type":"VEC3"
		},
		{
			"bufferView":17,
			"componentType":5126,
			"count":1152,
			"type":"VEC3"
		},
		{
			"bufferView":18,
			"componentType":5126,
			"count":1152,
			"type":"VEC2"
		},
		{
			"bufferView":19,
			"componentType":5123,
			"count":4584,
			"type":"SCALAR"
		},
		{
			"bufferView":20,
			"componentType":5126,
			"count":1224,
			"max":[
				-0.07898305356502533,
				0.8810405135154724,
				0.2361028641462326
			],
			"min":[
				-0.3376922011375427,
				4.044175148010254e-05,
				0.006412038579583168
			],
			"type":"VEC3"
		},
		{
			"bufferView":21,
			"componentType":5126,
			"count":1224,
			"type":"VEC3"
		},
		{
			"bufferView":22,
			"componentType":5126,
			"count":1224,
			"type":"VEC2"
		},
		{
			"bufferView":23,
			"componentType":5126,
			"count":1224,
			"type":"VEC2"
		},
		{
			"bufferView":24,
			"componentType":5123,
			"count":4590,
			"type":"SCALAR"
		},
		{
			"bufferView":25,
			"componentType":5126,
			"count":2166,
			"max":[
				0.2900000214576721,
				0.8080404996871948,
				0.32016777992248535
			],
			"min":[
				-0.2900000214576721,
				0.7880404591560364,
				-0.3201678991317749
			],
			"type":"VEC3"
		},
		{
			"bufferView":26,
			"componentType":5126,
			"count":2166,
			"type":"VEC3"
		},
		{
			"bufferView":27,
			"componentType":5126,
			"count":2166,
			"type":"VEC2"
		},
		{
			"bufferView":28,
			"componentType":5123,
			"count":7020,
			"type":"SCALAR"
		},
		{
			"bufferView":29,
			"componentType":5126,
			"count":2014,
			"max":[
				0.35200002789497375,
				0.8820405602455139,
				0.351999968290329
			],
			"min":[
				-0.35200002789497375,
				0.8080404996871948,
				-0.35200008749961853
			],
			"type":"VEC3"
		},
		{
			"bufferView":30,
			"componentType":5126,
			"count":2014,
			"type":"VEC3"
		},
		{
			"bufferView":31,
			"componentType":5126,
			"count":2014,
			"type":"VEC2"
		},
		{
			"bufferView":32,
			"componentType":5126,
			"count":2014,
			"type":"VEC2"
		},
		{
			"bufferView":33,
			"componentType":5123,
			"count":8424,
			"type":"SCALAR"
		}
	],
	"bufferViews":[
		{
			"buffer":0,
			"byteLength":14052,
			"byteOffset":0,
			"target":34962
		},
		{
			"buffer":0,
			"byteLength":14052,
			"byteOffset":14052,
			"target":34962
		},
		{
			"buffer":0,
			"byteLength":9368,
			"byteOffset":28104,
			"target":34962
		},
		{
			"buffer":0,
			"byteLength":9348,
			"byteOffset":37472,
			"target":34963
		},
		{
			"buffer":0,
			"byteLength":13824,
			"byteOffset":46820,
			"target":34962
		},
		{
			"buffer":0,
			"byteLength":13824,
			"byteOffset":60644,
			"target":34962
		},
		{
			"buffer":0,
			"byteLength":9216,
			"byteOffset":74468,
			"target":34962
		},
		{
			"buffer":0,
			"byteLength":9168,
			"byteOffset":83684,
			"target":34963
		},
		{
			"buffer":0,
			"byteLength":13824,
			"byteOffset":92852,
			"target":34962
		},
		{
			"buffer":0,
			"byteLength":13824,
			"byteOffset":106676,
			"target":34962
		},
		{
			"buffer":0,
			"byteLength":9216,
			"byteOffset":120500,
			"target":34962
		},
		{
			"buffer":0,
			"byteLength":9168,
			"byteOffset":129716,
			"target":34963
		},
		{
			"buffer":0,
			"byteLength":14124,
			"byteOffset":138884,
			"target":34962
		},
		{
			"buffer":0,
			"byteLength":14124,
			"byteOffset":153008,
			"target":34962
		},
		{
			"buffer":0,
			"byteLength":9416,
			"byteOffset":167132,
			"target":34962
		},
		{
			"buffer":0,
			"byteLength":9432,
			"byteOffset":176548,
			"target":34963
		},
		{
			"buffer":0,
			"byteLength":13824,
			"byteOffset":185980,
			"target":34962
		},
		{
			"buffer":0,
			"byteLength":13824,
			"byteOffset":199804,
			"target":34962
		},
		{
			"buffer":0,
			"byteLength":9216,
			"byteOffset":213628,
			"target":34962
		},
		{
			"buffer":0,
			"byteLength":9168,
			"byteOffset":222844,
			"target":34963
		},
		{
			"buffer":0,
			"byteLength":14688,
			"byteOffset":232012,
			"target":34962
		},
		{
			"buffer":0,
			"byteLength":14688,
			"byteOffset":246700,
			"target":34962
		},
		{
			"buffer":0,
			"byteLength":9792,
			"byteOffset":261388,
			"target":34962
		},
		{
			"buffer":0,
			"byteLength":9792,
			"byteOffset":271180,
			"target":34962
		},
		{
			"buffer":0,
			"byteLength":9180,
			"byteOffset":280972,
			"target":34963
		},
		{
			"buffer":0,
			"byteLength":25992,
			"byteOffset":290152,
			"target":34962
		},
		{
			"buffer":0,
			"byteLength":25992,
			"byteOffset":316144,
			"target":34962
		},
		{
			"buffer":0,
			"byteLength":17328,
			"byteOffset":342136,
			"target":34962
		},
		{
			"buffer":0,
			"byteLength":14040,
			"byteOffset":359464,
			"target":34963
		},
		{
			"buffer":0,
			"byteLength":24168,
			"byteOffset":373504,
			"target":34962
		},
		{
			"buffer":0,
			"byteLength":24168,
			"byteOffset":397672,
			"target":34962
		},
		{
			"buffer":0,
			"byteLength":16112,
			"byteOffset":421840,
			"target":34962
		},
		{
			"buffer":0,
			"byteLength":16112,
			"byteOffset":437952,
			"target":34962
		},
		{
			"buffer":0,
			"byteLength":16848,
			"byteOffset":454064,
			"target":34963
		}
	],
	"samplers":[
		{
			"magFilter":9729,
			"minFilter":9987
		}
	],
	"buffers":[
		{
			"byteLength":470912,
			"uri":"sheetTable.bin"
		}
	]
}
